<mxfile host="Electron" modified="2024-04-05T17:29:34.512Z" agent="Mozilla/5.0 (X11; Linux x86_64) AppleWebKit/537.36 (KHTML, like Gecko) draw.io/21.6.5 Chrome/114.0.5735.243 Electron/25.3.1 Safari/537.36" etag="euueRJ_i7iDJl8OJ7Vv5" version="21.6.5" type="device">
  <diagram name="Page-1" id="BLDVzQ1TnQkECbLpREf5">
    <mxGraphModel dx="1866" dy="1173" grid="1" gridSize="10" guides="1" tooltips="1" connect="1" arrows="1" fold="1" page="0" pageScale="1" pageWidth="827" pageHeight="1169" math="0" shadow="0">
      <root>
        <mxCell id="0" />
        <mxCell id="1" parent="0" />
        <mxCell id="yBlL6VTiBweEXrjM-FRY-26" value="quadratic" style="rounded=0;whiteSpace=wrap;html=1;verticalAlign=top;" vertex="1" parent="1">
          <mxGeometry x="200" width="520" height="320" as="geometry" />
        </mxCell>
        <mxCell id="yBlL6VTiBweEXrjM-FRY-7" value="complex" style="rounded=0;whiteSpace=wrap;html=1;verticalAlign=top;" vertex="1" parent="1">
          <mxGeometry x="220" y="40" width="340" height="260" as="geometry" />
        </mxCell>
        <mxCell id="yBlL6VTiBweEXrjM-FRY-17" value="rational" style="rounded=0;whiteSpace=wrap;html=1;verticalAlign=top;" vertex="1" parent="1">
          <mxGeometry x="240" y="80" width="160" height="200" as="geometry" />
        </mxCell>
        <mxCell id="yBlL6VTiBweEXrjM-FRY-4" value="irrational" style="rounded=0;whiteSpace=wrap;html=1;" vertex="1" parent="1">
          <mxGeometry x="420" y="140" width="120" height="60" as="geometry" />
        </mxCell>
        <mxCell id="yBlL6VTiBweEXrjM-FRY-14" value="bigInt" style="rounded=0;whiteSpace=wrap;html=1;" vertex="1" parent="1">
          <mxGeometry x="260" y="120" width="120" height="60" as="geometry" />
        </mxCell>
        <mxCell id="yBlL6VTiBweEXrjM-FRY-15" value="smallInt" style="rounded=0;whiteSpace=wrap;html=1;" vertex="1" parent="1">
          <mxGeometry x="260" y="200" width="120" height="60" as="geometry" />
        </mxCell>
        <mxCell id="yBlL6VTiBweEXrjM-FRY-27" value="symbol" style="rounded=0;whiteSpace=wrap;html=1;" vertex="1" parent="1">
          <mxGeometry x="580" y="140" width="120" height="60" as="geometry" />
        </mxCell>
      </root>
    </mxGraphModel>
  </diagram>
</mxfile>
